ply
format ascii 1.0
comment created by MATLAB plywrite
element vertex 252
property float x
property float y
property float z
property float nx
property float ny
property float nz
element face 500
property list uchar short vertex_indices
end_header
5.283045 3.783166 6.246170 0.253480 0.087210 0.963401 
-4.696071 12.778096 10.926511 -0.687900 0.725671 -0.014003 
-3.069885 11.516102 10.127133 0.492890 -0.706011 -0.508536 
1.693561 8.907270 4.774942 0.185524 0.935341 -0.301193 
-3.366422 8.358218 3.815573 -0.556203 0.652010 -0.515287 
0.772204 3.977133 9.914364 0.214879 -0.087222 0.972738 
-0.103114 2.084204 2.701483 -0.479859 -0.584599 -0.654201 
-4.420276 4.711546 -0.003193 -0.592895 0.297977 -0.748121 
-6.757800 5.046739 3.833437 -0.450536 -0.304951 -0.839060 
1.396902 0.644904 4.256095 -0.188600 -0.658578 -0.728495 
-6.297810 8.710301 12.779410 0.378935 -0.060447 0.923447 
-4.821502 3.818014 9.282494 0.104618 -0.569460 0.815334 
-3.781387 3.739312 1.620057 0.420979 -0.630426 -0.652181 
-5.086570 2.422421 3.967926 -0.931623 0.130536 0.339175 
-2.067743 -0.133738 5.045234 0.035973 -0.411526 -0.910688 
-1.705881 14.645714 10.901667 0.752312 -0.270661 0.600641 
4.021376 7.573936 4.867652 0.754887 0.562443 -0.337347 
3.235305 7.177883 9.356082 0.731378 0.318486 0.603036 
-4.255809 2.068468 2.874283 -0.008960 -0.817469 -0.575903 
-0.461478 9.965137 7.994292 -0.072279 0.965536 0.250033 
-2.645500 2.317926 2.934185 0.338775 -0.652692 -0.677661 
-7.712045 11.476238 10.111072 -0.848966 0.484692 0.210548 
-2.835018 4.471025 0.926064 0.076942 -0.955523 -0.284703 
-4.136607 3.958636 9.079758 0.135424 -0.647622 0.749831 
-8.435790 6.574479 5.192897 -0.877617 0.035549 -0.478042 
4.448236 4.623204 7.221470 0.933985 -0.203812 0.293485 
-1.289218 9.487995 8.572427 -0.183572 0.882601 0.432802 
-0.157285 1.709528 3.678539 -0.294903 -0.782913 -0.547795 
-7.278090 14.563952 8.272365 -0.863931 0.053427 -0.500768 
-5.798215 4.345762 3.863763 -0.801896 -0.301489 -0.515817 
-4.902379 9.783492 9.361427 0.885376 0.454245 -0.098846 
-5.605270 4.115567 2.589356 -0.671395 0.700463 -0.242034 
-7.815900 16.526616 8.428294 -0.924483 0.380034 0.030083 
-2.354090 8.446915 1.986240 -0.276016 0.582114 -0.764826 
-4.235828 3.122562 1.590916 0.296267 -0.664729 -0.685828 
0.567702 0.878299 4.621007 -0.222073 -0.426635 -0.876736 
2.902778 1.270696 4.018547 0.399621 -0.881960 -0.249901 
-1.906814 15.025728 11.281453 -0.237315 0.760673 0.604201 
-3.480764 5.050037 -0.298336 -0.001352 0.034997 -0.999386 
4.549378 6.431791 5.266109 0.916396 0.261002 -0.303473 
-7.312345 9.095154 6.992592 -0.430844 0.736463 -0.521532 
-8.409955 5.054311 5.474394 -0.804666 -0.369602 -0.464658 
-5.836590 3.456818 3.398516 -0.754600 0.133047 0.642555 
-5.877215 0.245804 5.770886 -0.283768 -0.274269 0.918832 
1.462867 4.409008 0.507636 0.418885 -0.103748 -0.902093 
-0.549546 1.671735 8.964202 0.032062 -0.726204 0.686731 
-7.610075 6.255611 4.131630 -0.655883 -0.004431 -0.754849 
-7.348600 15.719522 8.955019 0.048193 0.363094 0.930505 
-4.925664 10.131657 10.112331 0.975389 -0.218630 0.028589 
3.460962 4.095195 8.822313 0.691232 -0.354981 0.629434 
-1.210776 8.211563 10.055061 -0.227526 0.557960 0.798068 
-6.066110 9.628354 7.240965 -0.107771 0.938653 -0.327592 
-5.569545 8.392259 11.599420 0.777124 -0.300798 0.552810 
-7.308070 2.264802 2.495972 -0.834012 -0.519281 -0.186472 
-0.737942 4.580745 0.190845 0.121620 -0.238165 -0.963580 
-9.248625 7.697020 8.278899 -0.820274 -0.290141 -0.492918 
0.477614 9.382143 3.784161 0.265753 0.949477 -0.166937 
-6.750840 5.681027 11.966495 0.672773 -0.397225 0.624171 
-1.391074 13.413071 9.763395 0.201143 -0.084789 -0.975885 
4.063752 3.479678 2.296444 0.339899 -0.085352 -0.936581 
-5.503145 6.042616 10.002077 0.199001 -0.492902 0.847022 
5.816910 5.127953 4.903998 0.498977 0.845638 0.189522 
0.964466 7.932590 2.270929 0.311881 0.613419 -0.725567 
-5.540695 9.066550 4.992791 -0.198271 0.811956 -0.549013 
-2.392256 0.222273 6.537631 -0.192975 -0.040727 0.980358 
-3.618084 6.940406 3.383991 -0.579566 0.298249 -0.758387 
-7.638465 13.784356 9.593516 -0.610673 0.242883 0.753715 
-6.759005 0.262775 4.584963 -0.832464 -0.553414 -0.027125 
-3.468907 0.456308 4.335127 0.250196 -0.637162 -0.728991 
-3.234494 4.842435 2.477485 -0.583129 0.706666 -0.400730 
-1.739516 0.543021 6.384651 -0.137327 -0.707763 0.692974 
-3.037793 12.597131 9.770890 -0.032788 0.103881 -0.994049 
0.085308 0.317579 5.835380 0.183604 -0.851311 0.491486 
3.838563 5.898026 3.240194 0.789102 0.226074 -0.571147 
-0.240202 3.532345 10.208638 0.058188 -0.129536 0.989866 
-7.715795 7.735086 4.721469 -0.588276 0.519074 -0.620075 
4.412180 2.625793 2.890682 0.418640 -0.614245 -0.668912 
2.376292 1.508941 3.348801 0.107510 -0.741626 -0.662143 
1.223307 3.796906 0.995552 -0.132144 -0.742426 -0.656766 
-6.782180 10.911956 8.770947 0.099304 0.460758 -0.881953 
-1.019100 5.079782 10.229150 -0.070229 -0.409204 0.909736 
-6.773400 15.221520 6.485262 -0.173561 0.004929 -0.984811 
-8.818435 5.427496 10.246650 -0.498407 -0.816760 -0.290678 
-3.846640 11.867790 10.936676 0.461480 -0.255596 0.849533 
-7.251490 14.074402 7.180612 -0.659776 -0.292988 -0.691992 
-8.876020 8.079810 12.130972 -0.851733 -0.037711 0.522617 
4.742106 5.042867 5.224403 0.802365 0.495284 0.333022 
1.217837 1.922342 8.775123 0.402995 -0.680659 0.611799 
-0.289075 6.248717 0.782660 0.164574 0.350812 -0.921871 
-4.310938 1.131112 5.724186 -0.246323 -0.694421 0.676095 
-5.254335 2.834020 5.356572 -0.877317 -0.426636 -0.219766 
-8.527395 10.243227 10.060872 -0.847650 0.486840 -0.210895 
2.081386 8.448086 3.649598 0.424263 0.784124 -0.452935 
2.563112 6.423359 10.119124 0.463389 -0.040173 0.885244 
-0.694422 4.495365 9.804984 -0.049277 -0.178482 0.982708 
-0.402292 2.571048 2.800996 -0.252176 -0.641688 -0.724323 
-6.612885 5.633421 9.919125 0.209606 -0.825984 0.523273 
-5.759555 4.067083 9.468371 -0.084317 -0.552544 0.829208 
1.328585 9.932310 7.245576 0.303177 0.952818 0.014889 
-1.664840 6.634082 10.480088 -0.255480 0.060842 0.964898 
-7.317125 12.324496 8.339804 -0.695082 -0.250338 -0.673937 
-4.389462 5.078031 9.870828 0.151176 -0.293247 0.944008 
1.480080 9.453388 5.793157 0.251714 0.916403 -0.311200 
-7.196965 11.283806 10.647008 -0.059278 0.626022 0.777549 
-9.474030 8.310751 9.407224 -0.972563 0.232297 -0.012592 
-2.646616 13.781985 11.805570 0.418802 -0.234633 0.877241 
-6.890900 3.721727 4.744510 -0.443128 -0.709307 -0.548198 
-6.069110 16.779109 7.044229 0.819285 0.460230 -0.341995 
0.152786 0.791154 7.711962 -0.002483 -0.837780 0.546002 
-8.672910 7.168086 8.193689 -0.984426 -0.134695 -0.112975 
2.732894 7.436442 3.056437 0.607655 0.548386 -0.574481 
-1.603190 12.322784 10.312049 0.783839 -0.578126 0.226642 
-8.261470 8.605691 12.563404 -0.399942 0.233082 0.886408 
-1.761311 7.503825 1.271693 -0.131260 0.461388 -0.877435 
-5.056310 9.834545 8.276783 0.430006 0.902794 -0.007546 
-6.129235 1.693513 3.566894 -0.628273 0.490957 0.603518 
-2.388638 2.286985 9.266474 -0.602129 -0.530242 0.596895 
-6.093610 6.642974 3.359372 -0.254817 0.166124 -0.952613 
-6.356305 7.431594 11.745701 0.753049 -0.262753 0.603223 
-6.875880 13.532128 9.909814 0.317790 0.319014 0.892883 
-4.991815 9.757458 6.335310 -0.111790 0.955910 -0.271548 
1.575478 2.439371 2.529929 -0.044137 -0.726954 -0.685267 
2.540923 5.318705 1.498110 0.727342 0.061743 -0.683492 
-7.794940 7.210738 12.862084 -0.358773 -0.109158 0.927020 
-5.091810 10.610109 9.650929 0.398471 0.045535 -0.916050 
2.630942 4.024500 2.041493 0.554622 0.073912 -0.828813 
2.057500 2.841813 1.947947 0.187390 -0.558476 -0.808078 
-4.314019 8.685836 9.539396 0.514656 0.497417 0.698360 
1.775440 7.994596 10.057385 0.387045 0.471371 0.792468 
-0.454248 9.890129 5.841062 0.047292 0.951057 -0.305375 
-6.756565 3.252451 3.115460 -0.678215 0.498360 0.540057 
-7.867990 5.669366 12.401239 -0.184260 -0.627710 0.756326 
-2.711450 8.044268 9.522024 -0.065228 0.449225 0.891034 
0.135443 0.244516 6.854230 0.172663 -0.944957 0.277927 
-5.187900 2.265793 2.406207 0.014349 -0.759322 -0.650557 
-3.081049 1.897888 2.804155 0.275451 -0.689469 -0.669895 
-5.153370 3.346457 4.467971 -0.839921 -0.533311 -0.100557 
-3.839796 -0.077749 4.962889 -0.158758 -0.977767 -0.136996 
1.650230 -0.068402 4.951469 0.339298 -0.933627 -0.114963 
-6.399405 1.392565 5.006019 -0.744928 0.503327 0.437886 
4.101151 5.029352 3.475902 0.544323 0.697590 -0.465920 
-5.960415 9.886346 12.073588 0.268850 0.551444 0.789702 
-2.639907 5.862679 0.995265 -0.481463 0.735009 -0.477446 
-4.236001 4.650828 2.011968 -0.497485 0.810485 -0.309230 
1.968828 6.157843 1.377317 0.444443 0.380045 -0.811194 
-4.277868 12.667272 11.474093 -0.503263 0.402769 0.764528 
-2.892483 0.505515 4.945803 0.278738 -0.440582 -0.853342 
-3.647928 4.229410 0.507274 0.216970 -0.853187 -0.474338 
-5.115790 2.921354 8.142986 -0.034637 -0.856059 0.515717 
-1.697932 3.146862 9.975832 -0.287978 -0.139625 0.947404 
-2.999867 8.833290 2.724678 -0.760964 0.542902 -0.355234 
-1.690500 9.765568 5.930875 -0.133434 0.976024 -0.171967 
-5.622640 8.980326 12.519314 0.698563 0.024104 0.715142 
3.387100 1.744033 5.477080 0.481096 -0.780593 0.399025 
-1.269883 5.356865 0.571203 0.095100 0.422415 -0.901400 
-2.882188 8.940048 8.773629 0.031492 0.791308 0.610606 
-3.948783 9.345011 5.410287 -0.090208 0.887741 -0.451418 
-8.357705 8.149589 7.418643 -0.838103 0.241485 -0.489151 
5.251580 3.881215 2.875535 0.689953 -0.110989 -0.715295 
-2.897736 6.604420 10.033812 -0.107766 0.078414 0.991079 
-8.133700 6.163141 9.283595 -0.790458 -0.575032 -0.210985 
-8.568990 4.436500 7.196365 -0.889474 -0.453759 -0.054217 
-7.433630 3.218833 6.906005 -0.577280 -0.814570 -0.056774 
-0.937935 13.738360 10.022077 0.920743 -0.213537 0.326548 
-4.579681 7.077480 10.030653 0.472308 -0.191507 0.860378 
1.373696 1.289356 7.672226 0.401766 -0.737588 0.542723 
-3.617577 6.883099 10.110971 0.094377 0.008154 0.995503 
-5.402975 10.599593 11.298246 0.254698 0.025789 0.966677 
-4.251013 8.007074 3.904718 -0.115037 0.505528 -0.855107 
-2.804129 4.359791 9.622695 -0.143829 -0.410976 0.900229 
-6.216895 15.351175 7.754114 0.999079 -0.041247 0.011832 
0.986414 6.789603 10.608563 0.220877 -0.018929 0.975118 
-6.923220 4.883844 11.216013 0.329472 -0.939968 0.088928 
-1.648758 4.266661 0.477512 -0.055754 -0.960793 -0.271603 
-6.274100 16.156574 8.048959 0.847666 0.158686 0.506243 
-8.995100 8.911493 10.474305 -0.990781 0.108341 0.081333 
0.132199 7.614127 10.579769 0.002358 0.311845 0.950130 
1.708328 0.759312 5.907419 0.435804 -0.855393 0.279961 
-2.517419 14.238578 10.418612 -0.469638 0.586366 -0.660011 
-6.648445 3.736502 1.968313 -0.529985 0.843268 -0.089526 
4.079987 5.671151 8.468012 0.817233 -0.045135 0.574537 
-6.381985 12.591646 8.252097 0.671523 -0.329540 -0.663672 
-7.526875 11.032407 9.148786 -0.694138 0.339599 -0.634701 
-7.774790 10.201462 8.156456 -0.474303 0.699378 -0.534702 
-4.571790 6.053125 3.017779 -0.220648 0.471468 -0.853834 
6.045635 4.354739 4.217441 0.937981 0.162909 -0.306027 
-5.048415 10.279471 10.969795 0.761178 -0.268133 0.590520 
-4.781344 7.645303 10.663781 0.855425 -0.002523 0.517921 
-4.165163 5.201380 1.024464 -0.624678 0.764401 0.159588 
-7.899635 14.204181 8.842201 -0.967939 -0.027262 -0.249702 
-7.938885 9.934292 12.062872 -0.178055 0.631309 0.754815 
-4.914135 3.853653 0.854954 -0.586772 0.137525 -0.797988 
-2.763985 7.025274 1.794752 -0.772096 0.215454 -0.597868 
-6.000175 6.111280 11.196572 0.704634 -0.504232 0.499241 
0.400999 8.946980 9.682081 0.021561 0.723487 0.690001 
-8.388220 7.677419 5.896782 -0.819324 0.488696 -0.299807 
-3.154447 3.313616 8.228296 -0.429316 -0.743513 0.512714 
-3.969993 2.036521 7.023200 -0.126656 -0.793820 0.594818 
2.334733 4.704929 9.784155 0.393609 -0.259185 0.881983 
-5.234755 1.766499 5.395699 -0.797863 0.063732 0.599460 
2.089012 3.101439 9.077197 0.475974 -0.453643 0.753430 
-6.665970 17.143770 7.658896 -0.591280 0.512395 -0.622767 
-5.805605 7.809500 3.779182 -0.197182 0.550707 -0.811074 
-1.083112 15.454062 10.194911 0.622682 0.606853 -0.493961 
-2.696980 9.704797 7.198831 0.030529 0.997534 0.063191 
-3.879885 0.597255 5.486016 -0.368686 -0.306662 0.877513 
-8.858065 5.775801 8.259656 -0.890436 -0.211629 0.402910 
-6.713565 17.445163 8.264276 0.281923 0.859000 0.427363 
-1.160946 9.322863 4.864318 -0.026509 0.991709 -0.125742 
-6.152505 11.114149 10.820843 -0.185245 0.791436 0.582506 
-2.701774 3.906023 9.241300 -0.410116 -0.403440 0.817949 
-5.417375 5.630583 3.310388 -0.440675 0.142393 -0.886301 
4.164608 2.884058 5.992665 0.601113 -0.409983 0.685986 
-2.620575 9.036357 4.577130 -0.347649 0.918951 -0.186196 
-2.832097 -0.886906 5.986619 -0.103794 -0.834497 0.541148 
-6.221705 12.174765 9.605128 0.907463 0.252392 0.335870 
-8.670075 9.285128 7.948206 -0.735149 0.423102 -0.529661 
-7.115065 3.152174 1.535621 -0.797326 0.087422 -0.597184 
4.405404 7.188746 7.075862 0.933215 0.314040 0.174609 
2.817213 8.825234 8.313849 0.628616 0.681385 0.374910 
4.834070 4.791757 2.859053 0.404249 0.609930 -0.681592 
-9.244165 5.801953 11.055231 -0.843292 -0.467340 0.265428 
5.700590 2.532014 4.406304 0.780316 -0.584704 -0.221876 
5.555520 2.600201 5.486222 0.690952 -0.522175 0.499918 
-0.001587 6.098567 10.666051 0.053643 -0.251674 0.966324 
-9.222815 9.831794 11.393874 -0.872203 0.392162 0.292354 
1.028725 2.755491 9.606444 0.324503 -0.433569 0.840664 
-8.929060 6.284034 6.106822 -0.981981 0.074397 -0.173720 
1.991933 1.084033 6.887785 0.480691 -0.805796 0.345873 
6.022515 3.991926 5.617414 0.929670 -0.011943 0.368199 
-2.007812 9.599258 3.300269 -0.158257 0.959229 -0.234168 
0.785845 3.996600 1.471680 -0.435142 -0.760398 -0.482127 
-2.676503 1.856311 5.947468 -0.277603 -0.491406 0.825504 
-1.793670 1.322488 7.863821 -0.547635 -0.761608 0.346482 
-0.332570 8.991914 2.723899 0.251078 0.725594 -0.640682 
1.475769 9.446274 8.714472 0.294557 0.828189 0.476800 
-7.427705 5.495499 9.673929 -0.394687 -0.906020 0.152807 
-9.009735 6.339225 11.614315 -0.867168 -0.077422 0.491961 
3.439944 3.134090 7.907634 0.681397 -0.541947 0.491927 
-6.148230 11.085224 9.558438 0.674435 0.490048 -0.552259 
-9.372305 6.671397 10.096207 -0.972886 -0.203961 -0.109056 
-6.428360 3.074229 8.326288 -0.221575 -0.884201 0.411209 
3.352720 8.783207 6.320374 0.608976 0.789552 -0.075867 
-3.168143 11.526089 10.882672 0.452964 -0.512068 0.729801 
3.452336 2.122486 6.686173 0.651482 -0.678978 0.338466 
-4.205538 9.977757 7.686936 0.058508 0.988096 0.142277 
2.363560 9.037088 5.172663 0.343541 0.873748 -0.344302 
1.376695 5.445792 10.051740 0.133195 -0.263170 0.955511 
-5.111245 2.464202 6.198171 -0.524076 -0.845089 0.105679 
-4.922228 11.862362 9.949441 -0.389185 0.579054 -0.716402 
4.313323 1.653541 5.386903 0.280781 -0.774413 0.566963 
-7.317055 3.686822 8.646732 -0.512365 -0.614277 0.600121 
3 36 76 222 
3 63 120 156 
3 224 94 247 
3 113 192 33 
3 199 139 43 
3 27 95 6 
3 133 108 70 
3 212 0 86 
3 135 18 134 
3 16 218 39 
3 78 6 231 
3 114 245 51 
3 59 125 220 
3 70 108 233 
3 174 207 47 
3 144 88 62 
3 122 144 73 
3 35 14 146 
3 36 250 153 
3 130 217 53 
3 181 100 84 
3 119 21 103 
3 237 240 221 
3 148 248 197 
3 9 14 35 
3 88 154 113 
3 51 245 120 
3 44 78 54 
3 205 137 214 
3 125 44 122 
3 111 163 83 
3 6 78 121 
3 167 145 209 
3 89 199 205 
3 233 116 196 
3 224 247 171 
3 133 72 177 
3 12 147 22 
3 68 146 14 
3 250 223 0 
3 158 59 220 
3 117 46 75 
3 57 10 131 
3 20 135 12 
3 138 153 177 
3 169 166 23 
3 15 105 83 
3 38 154 54 
3 168 156 4 
3 147 173 22 
3 51 79 114 
3 79 100 181 
3 79 181 239 
3 102 242 246 
3 154 88 144 
3 94 210 149 
3 124 30 239 
3 132 155 127 
3 135 20 68 
3 135 34 12 
3 163 203 15 
3 151 26 19 
3 80 94 224 
3 194 50 176 
3 146 20 27 
3 99 80 224 
3 91 225 21 
3 123 10 112 
3 191 34 134 
3 218 86 39 
3 230 150 213 
3 133 177 228 
3 58 2 71 
3 56 234 230 
3 248 148 241 
3 112 190 225 
3 231 6 95 
3 235 19 194 
3 152 52 186 
3 222 185 229 
3 68 134 18 
3 58 203 163 
3 196 210 23 
3 95 22 231 
3 233 232 70 
3 221 82 131 
3 134 34 135 
3 70 72 133 
3 213 150 4 
3 197 196 23 
3 116 149 210 
3 45 87 226 
3 2 111 243 
3 2 58 111 
3 67 115 53 
3 125 73 140 
3 146 68 20 
3 225 190 21 
3 15 37 105 
3 211 8 117 
3 161 206 227 
3 59 76 126 
3 167 209 141 
3 142 113 154 
3 175 225 91 
3 151 208 213 
3 82 236 172 
3 230 208 56 
3 224 176 99 
3 45 233 108 
3 217 130 179 
3 213 4 156 
3 172 96 193 
3 115 67 139 
3 147 191 7 
3 238 87 165 
3 52 152 10 
3 65 192 69 
3 187 127 30 
3 60 11 101 
3 187 48 52 
3 74 226 5 
3 38 7 142 
3 26 194 19 
3 107 170 81 
3 96 60 193 
3 81 181 84 
3 61 229 185 
3 125 122 73 
3 36 77 76 
3 220 61 185 
3 177 72 138 
3 205 64 232 
3 20 95 27 
3 124 2 48 
3 169 94 80 
3 40 216 183 
3 55 160 240 
3 93 128 171 
3 196 232 233 
3 58 178 203 
3 200 87 238 
3 186 243 83 
3 22 95 12 
3 3 246 92 
3 63 202 75 
3 21 66 189 
3 49 200 238 
3 238 212 25 
3 211 168 184 
3 133 228 165 
3 164 60 101 
3 69 142 188 
3 96 97 60 
3 13 136 42 
3 23 148 197 
3 240 104 55 
3 67 68 137 
3 25 86 218 
3 169 159 166 
3 54 173 38 
3 155 26 204 
3 63 75 40 
3 126 76 77 
3 115 13 42 
3 194 176 128 
3 199 115 139 
3 176 224 171 
3 232 64 70 
3 22 173 231 
3 8 41 46 
3 16 246 242 
3 34 147 12 
3 241 97 251 
3 37 203 178 
3 37 178 1 
3 241 162 248 
3 86 0 61 
3 176 50 99 
3 248 106 90 
3 5 200 198 
3 30 48 187 
3 66 47 32 
3 31 130 42 
3 24 195 75 
3 29 8 211 
3 29 106 8 
3 216 91 183 
3 135 68 18 
3 59 158 76 
3 202 168 117 
3 14 9 138 
3 181 170 215 
3 109 157 227 
3 26 50 194 
3 40 195 157 
3 247 94 5 
3 174 119 170 
3 153 250 212 
3 137 68 14 
3 111 58 163 
3 42 130 115 
3 155 132 50 
3 117 8 46 
3 70 64 214 
3 129 19 98 
3 73 39 140 
3 9 27 6 
3 1 249 209 
3 106 41 8 
3 130 31 179 
3 204 151 156 
3 21 189 100 
3 34 191 147 
3 180 198 49 
3 208 151 129 
3 166 101 23 
3 40 120 63 
3 192 113 142 
3 145 37 1 
3 216 157 55 
3 69 192 142 
3 204 26 151 
3 84 100 28 
3 220 185 158 
3 118 52 10 
3 144 62 110 
3 101 11 23 
3 96 236 251 
3 179 31 191 
3 39 110 16 
3 170 107 174 
3 89 197 199 
3 222 76 158 
3 60 97 11 
3 47 66 119 
3 31 29 211 
3 73 144 110 
3 17 93 180 
3 48 2 186 
3 141 190 10 
3 79 182 100 
3 161 227 24 
3 16 92 246 
3 67 137 43 
3 78 231 173 
3 19 129 151 
3 236 96 172 
3 15 83 163 
3 97 96 251 
3 44 144 122 
3 241 251 162 
3 105 167 83 
3 107 207 174 
3 131 123 237 
3 175 104 240 
3 127 114 30 
3 189 32 28 
3 77 36 138 
3 143 69 188 
3 166 164 101 
3 103 215 119 
3 111 83 243 
3 238 244 212 
3 207 201 32 
3 47 207 32 
3 127 164 166 
3 78 44 126 
3 68 53 134 
3 1 209 145 
3 201 28 32 
3 48 30 124 
3 36 222 250 
3 58 71 178 
3 43 139 67 
3 150 33 192 
3 80 99 169 
3 174 47 119 
3 217 179 191 
3 225 85 112 
3 140 220 125 
3 173 54 78 
3 29 136 106 
3 99 159 169 
3 200 226 87 
3 109 160 55 
3 74 94 149 
3 236 160 206 
3 28 100 189 
3 71 2 124 
3 245 204 120 
3 123 85 237 
3 15 203 37 
3 180 93 198 
3 52 193 187 
3 232 89 205 
3 37 145 105 
3 241 148 97 
3 81 28 201 
3 104 91 216 
3 212 250 0 
3 210 196 116 
3 158 185 222 
3 115 199 13 
3 232 197 89 
3 108 133 165 
3 94 74 5 
3 131 237 221 
3 188 7 191 
3 180 25 218 
3 215 103 209 
3 84 28 81 
3 108 165 45 
3 65 69 184 
3 230 213 208 
3 104 216 55 
3 226 200 5 
3 98 235 219 
3 157 195 227 
3 51 120 40 
3 35 146 27 
3 105 145 167 
3 202 63 168 
3 132 127 166 
3 225 175 85 
3 169 210 94 
3 117 75 202 
3 45 149 116 
3 182 183 21 
3 223 222 229 
3 138 214 14 
3 246 3 102 
3 24 41 161 
3 23 11 148 
3 222 223 250 
3 59 126 125 
3 53 115 130 
3 217 191 134 
3 50 132 99 
3 86 25 212 
3 102 3 129 
3 183 79 40 
3 238 25 49 
3 70 214 72 
3 169 23 210 
3 27 9 35 
3 215 209 239 
3 160 82 240 
3 119 66 21 
3 153 244 177 
3 132 159 99 
3 157 109 55 
3 36 153 138 
3 65 4 150 
3 95 20 12 
3 138 9 77 
3 9 121 77 
3 219 128 17 
3 137 14 214 
3 107 81 201 
3 38 147 7 
3 193 118 57 
3 199 90 13 
3 198 200 49 
3 5 198 247 
3 98 19 235 
3 90 106 136 
3 53 217 134 
3 118 10 57 
3 92 56 3 
3 13 90 136 
3 40 79 51 
3 26 155 50 
3 218 16 242 
3 91 104 175 
3 45 165 87 
3 77 121 126 
3 97 148 11 
3 251 206 161 
3 161 162 251 
3 43 205 199 
3 244 153 212 
3 31 184 143 
3 234 62 113 
3 249 1 178 
3 167 186 83 
3 112 10 190 
3 186 2 243 
3 121 78 126 
3 44 154 144 
3 165 244 238 
3 56 92 234 
3 235 128 219 
3 214 138 72 
3 65 184 168 
3 75 46 24 
3 196 197 232 
3 41 24 46 
3 181 215 239 
3 151 213 156 
3 75 195 40 
3 215 170 119 
3 155 114 127 
3 219 17 218 
3 190 103 21 
3 31 211 184 
3 112 85 123 
3 40 157 216 
3 147 38 173 
3 29 31 42 
3 117 168 211 
3 172 57 131 
3 166 159 132 
3 53 68 67 
3 107 201 207 
3 4 65 168 
3 249 239 209 
3 187 164 127 
3 236 82 160 
3 100 182 21 
3 73 110 39 
3 9 6 121 
3 142 154 38 
3 81 170 181 
3 180 218 17 
3 128 93 17 
3 113 62 88 
3 45 226 74 
3 205 43 137 
3 21 183 91 
3 123 131 10 
3 33 150 230 
3 191 143 188 
3 239 249 124 
3 182 79 183 
3 65 150 192 
3 103 190 209 
3 242 219 218 
3 60 164 193 
3 214 64 205 
3 44 54 154 
3 48 186 52 
3 31 143 191 
3 3 208 129 
3 52 118 193 
3 71 249 178 
3 30 114 239 
3 171 247 93 
3 194 128 235 
3 110 92 16 
3 227 195 24 
3 180 49 25 
3 44 125 126 
3 176 171 128 
3 228 177 244 
3 221 240 82 
3 239 114 79 
3 57 172 193 
3 109 206 160 
3 62 234 110 
3 69 143 184 
3 92 110 234 
3 141 209 190 
3 248 199 197 
3 186 141 152 
3 186 167 141 
3 140 86 61 
3 220 140 61 
3 7 188 142 
3 66 32 189 
3 245 155 204 
3 102 98 242 
3 45 116 233 
3 204 156 120 
3 155 245 114 
3 0 229 61 
3 193 164 187 
3 63 156 168 
3 93 247 198 
3 136 29 42 
3 98 219 242 
3 152 141 10 
3 90 199 248 
3 56 208 3 
3 234 33 230 
3 33 234 113 
3 172 131 82 
3 41 106 162 
3 223 229 0 
3 39 86 140 
3 124 249 71 
3 74 149 45 
3 162 161 41 
3 85 175 237 
3 109 227 206 
3 206 251 236 
3 129 98 102 
3 165 228 244 
3 162 106 248 
3 237 175 240 
