ply
format ascii 1.0
comment created by MATLAB plywrite
element vertex 502
property float x
property float y
property float z
property float nx
property float ny
property float nz
element face 1000
property list uchar short vertex_indices
end_header
-3.663720 -3.116699 -5.324794 0.183038 -0.745740 -0.640600 
10.641210 4.604206 4.119263 0.184002 0.894482 0.407487 
-9.392142 23.623880 -1.204366 -0.698316 0.536877 -0.473411 
1.720704 -2.719398 1.147629 0.211346 -0.963580 0.163850 
-5.685170 -2.425775 1.316324 0.383964 -0.904575 -0.185247 
-6.139771 20.708660 -0.550123 0.495508 -0.849026 0.183376 
1.162496 9.910027 -4.437588 0.096039 0.575728 -0.811981 
-8.933340 -3.056880 3.583340 0.114472 -0.989000 -0.093679 
-11.467170 -2.495657 9.570843 -0.167943 -0.156419 0.973308 
-6.825649 5.354611 -4.932136 -0.918105 -0.145196 -0.368784 
-8.945600 -3.265611 -4.767911 -0.633610 -0.640683 -0.433663 
7.619454 -1.664180 -0.522951 0.311756 -0.702796 -0.639442 
-6.732844 7.316836 -5.010070 -0.692001 0.089043 -0.716384 
1.544407 9.746066 9.810709 0.162258 0.663837 0.730064 
0.293151 -3.146023 0.970867 -0.308741 -0.941449 -0.135478 
-7.575381 -2.328770 -1.580754 0.478069 -0.874232 0.084667 
-8.737155 -2.790941 -5.360912 -0.725390 0.235410 -0.646832 
5.076727 4.162785 -5.083651 0.556380 -0.019122 -0.830708 
-0.192109 -2.287503 4.297533 -0.243291 -0.953896 0.175759 
-14.586270 3.854515 -0.571951 -0.594330 -0.712584 -0.372822 
0.462122 -3.098005 7.816181 -0.126108 -0.849716 -0.511937 
2.636235 -2.956190 -4.174078 0.338705 -0.670863 -0.659713 
-5.643628 12.973790 6.766742 -0.132049 0.621907 0.771877 
-13.039620 19.048460 8.076029 0.567575 0.268155 0.778429 
-14.417770 26.321850 -10.732260 -0.417489 0.866375 -0.274039 
-14.554010 -3.209141 0.548980 -0.804910 -0.581584 -0.117810 
-9.652441 9.340580 8.875655 -0.000661 0.178408 0.983957 
-6.759944 -2.337973 -0.408312 0.262962 -0.944459 -0.197101 
-10.173140 -0.862173 3.599890 -0.913532 0.347271 0.211806 
-5.992854 5.378398 8.192908 -0.368133 -0.247570 0.896207 
5.383132 -2.024783 6.141332 0.547441 -0.704701 0.451336 
-7.018723 -3.228073 1.331474 0.306432 -0.927639 -0.213507 
-8.018962 -2.876609 2.380462 -0.132190 -0.975518 0.175755 
-2.946836 -3.014571 8.739797 -0.008183 -0.904156 -0.427123 
-12.394840 3.765522 -2.515106 -0.320740 -0.717559 -0.618251 
4.477353 -0.858754 -3.965654 0.607406 -0.604724 -0.515138 
-3.232930 26.081310 -3.963690 0.756296 0.202929 0.621962 
7.634344 7.082677 -3.202979 0.771517 0.038571 -0.635039 
-17.132780 5.894924 3.438278 -0.897927 -0.431236 0.088108 
-9.944928 2.803187 7.084144 -0.548260 -0.444315 0.708516 
-11.309250 -0.687949 -0.982458 -0.625384 0.500171 -0.598936 
6.470610 13.483070 4.494627 0.718926 0.666172 0.198397 
0.065235 -2.129882 7.054635 -0.069774 -0.955557 -0.286432 
-12.905340 21.621500 -10.999370 0.418548 -0.736061 -0.532008 
-5.517515 -2.942929 8.251793 0.132019 -0.964907 -0.226993 
-9.655865 -2.865231 1.890959 0.197003 -0.960648 0.195820 
4.159682 -2.828454 2.163006 -0.151032 -0.988098 0.029177 
-7.270807 -2.982593 3.844140 -0.101700 -0.993680 0.047517 
0.425675 16.085550 0.171105 0.012344 0.953786 -0.300234 
-14.143510 -2.836022 -0.495540 -0.859979 0.196796 -0.470858 
-1.479217 -3.053040 8.376238 -0.132642 -0.921973 -0.363828 
-8.715131 3.901601 -3.419504 -0.192915 -0.328958 -0.924430 
-18.536870 15.427940 1.824665 -0.948238 0.147400 -0.281280 
-14.768820 12.855500 -1.461870 -0.510780 0.046409 -0.858458 
-13.003210 10.318320 -3.429685 -0.336716 0.189421 -0.922357 
-6.609424 0.285058 -2.007754 -0.288027 0.139221 -0.947448 
-5.392443 -2.463859 3.441444 0.427920 -0.902716 0.044579 
1.064587 -3.106887 1.495040 0.245740 -0.968405 0.042463 
-16.666040 20.251410 0.803757 -0.715083 0.452456 -0.532860 
-5.670035 -2.266865 -3.599113 0.072181 -0.914280 0.398599 
9.411306 4.422738 1.188465 0.773221 0.505121 -0.383381 
-7.338527 8.197752 8.875454 -0.117146 -0.027715 0.992728 
-7.148766 3.881852 -3.276163 -0.426436 -0.393983 -0.814205 
-16.871580 6.742087 -0.539651 -0.876938 -0.285807 -0.386385 
5.875442 2.144520 -3.960935 0.699936 -0.118398 -0.704323 
-1.012501 3.583661 11.317870 -0.097383 -0.214988 0.971749 
1.430601 -2.195322 -1.833866 -0.534933 -0.838124 -0.106743 
8.896471 6.851414 5.088704 0.916185 0.062075 0.395919 
-3.152961 -2.124016 7.948315 0.032390 -0.926663 -0.374494 
-18.748820 15.938480 4.401788 -0.951167 0.301309 0.067045 
-0.191617 3.765962 -6.842228 0.195638 -0.119401 -0.973380 
-2.612801 15.812760 1.017981 -0.200531 0.961073 -0.190070 
2.527862 -3.005613 5.955055 -0.138728 -0.989223 0.046824 
4.162091 14.152640 6.556672 0.393053 0.633825 0.666164 
-13.205010 7.005292 8.947669 -0.327264 -0.207103 0.921958 
-3.861197 -2.323210 5.476091 0.032371 -0.997864 0.056748 
-14.847860 21.083180 -4.464982 -0.901648 -0.320468 -0.290399 
-12.932260 -3.015641 4.804988 -0.868150 -0.320299 -0.379109 
-2.643574 22.660180 -2.294595 0.820728 -0.542715 0.178508 
-11.596430 1.710529 0.732561 -0.845045 -0.488695 -0.216972 
4.050914 -3.112477 0.053782 0.181736 -0.980206 -0.078541 
-9.804758 17.175510 0.817292 0.861167 0.271390 -0.429813 
2.441470 -3.021812 8.832399 0.176153 -0.851236 0.494335 
-10.785950 0.536316 -1.081255 -0.705356 -0.111585 -0.700016 
11.360510 3.722022 0.505467 0.433082 0.591939 -0.679742 
1.573631 -2.930379 7.345433 -0.168655 -0.953034 -0.251557 
-15.920250 24.611180 -8.975382 -0.985074 0.163630 -0.053425 
-14.341600 20.313430 -8.966143 -0.731906 -0.518387 -0.442254 
-8.445551 -0.544369 -2.349960 -0.445683 0.609947 -0.655234 
-14.751400 23.992460 -9.156339 -0.516344 -0.661315 -0.544105 
-4.708180 4.855200 -7.722570 -0.307990 -0.127449 -0.942814 
2.351948 6.243296 10.845610 0.338257 0.097109 0.936030 
-8.471655 -3.233632 -0.751855 0.256586 -0.964441 -0.063383 
1.103841 -2.095345 6.717477 -0.322963 -0.880857 -0.346101 
7.120596 -2.135699 5.006511 0.315029 -0.825502 0.468297 
-17.061690 18.790710 1.328206 -0.834195 0.103637 -0.541644 
-5.809101 26.032500 -2.699214 -0.623615 0.710223 -0.326631 
-15.961900 5.045883 -0.782398 -0.709419 -0.535901 -0.457750 
-4.425669 8.663828 -6.846866 -0.319948 0.744372 -0.586126 
1.840393 1.878431 10.582870 0.356834 -0.290056 0.887996 
-5.472473 14.093110 -1.970338 0.058425 0.820108 -0.569219 
-1.205602 -2.146342 7.432035 -0.143542 -0.884886 -0.443139 
-5.560883 25.987710 -1.248800 0.096357 0.711751 0.695791 
-7.288246 -3.187411 -6.219946 -0.253342 -0.416890 -0.872938 
9.088240 7.970058 0.198598 0.951792 0.150057 -0.267534 
-13.778930 13.202520 -1.753115 -0.283115 0.212457 -0.935258 
2.080562 -3.032242 0.497789 0.080627 -0.981423 0.174090 
-10.510000 1.635871 5.003928 -0.865860 -0.422821 0.267411 
9.954453 -0.107134 -0.577194 0.567686 -0.474077 -0.673040 
3.640941 -2.931171 4.130017 -0.021375 -0.999544 -0.021307 
-3.483607 1.709155 10.282990 -0.612821 -0.272248 0.741843 
-16.747340 10.259580 -0.707137 -0.804519 0.233573 -0.546070 
-15.527020 25.553870 -10.235280 -0.885428 0.220269 -0.409266 
-12.857460 -1.508991 2.605612 -0.532106 0.634547 0.560548 
-7.466499 22.535630 -2.785394 -0.362092 -0.221394 -0.905469 
7.405026 10.422410 -1.908208 0.709151 0.352388 -0.610678 
-15.876550 3.988644 2.381374 -0.727443 -0.684836 -0.042737 
9.637545 -1.526791 2.371887 0.532607 -0.845386 0.040647 
-0.508279 6.956814 -7.422236 0.274562 0.078854 -0.958331 
-11.673180 -0.204586 1.331763 -0.702443 0.604131 0.376297 
-0.014670 12.770400 -3.947237 0.050718 0.547611 -0.835194 
-11.776270 -0.833538 8.753504 -0.391703 0.730198 0.559804 
-6.269575 -3.111914 4.576389 0.355203 -0.927766 0.114377 
-2.184700 -3.183320 -4.857954 0.129909 -0.660608 -0.739405 
3.975354 15.261970 4.783635 0.403903 0.860886 0.309414 
-8.941315 14.722470 4.795277 0.596314 0.600297 0.532967 
-12.098850 21.144750 1.561393 -0.226561 0.973628 0.026827 
3.530765 -2.966636 -2.790378 0.562898 -0.795774 -0.223359 
-1.743053 6.339136 11.623020 -0.036307 0.066392 0.997133 
-8.200797 21.940090 0.569881 0.514830 0.283496 0.809061 
-14.440470 4.713158 -2.149713 -0.514022 -0.588301 -0.624247 
-14.697200 24.995560 -8.152284 0.031737 0.910273 0.412791 
-5.265466 -0.189758 9.668181 -0.342943 0.767396 0.541750 
-9.851328 18.729830 1.386848 0.977723 -0.146819 0.150004 
-11.313350 18.249770 6.186882 0.782895 0.199167 0.589413 
5.770473 9.383863 8.540959 0.540408 0.295772 0.787705 
-5.850429 0.700775 7.232648 -0.152829 0.355793 0.921984 
-2.421553 15.933420 4.021283 -0.227596 0.957247 0.178544 
-12.132220 13.957320 -1.962090 -0.129981 0.459632 -0.878546 
-11.103660 16.966930 -0.977528 0.521365 0.285185 -0.804269 
-10.495540 18.904380 3.889350 0.941186 0.161769 0.296647 
1.540438 -3.062487 3.499386 0.048506 -0.998780 0.009243 
-0.523761 -0.281187 -6.112059 0.157534 -0.393542 -0.905708 
-10.223110 22.806240 0.751165 -0.434812 0.794873 0.423221 
-14.400340 -2.065922 1.372294 -0.886110 0.445932 0.126305 
0.546489 -3.098604 -4.632571 0.113005 -0.847374 -0.518833 
-18.404230 12.651990 3.189045 -0.755271 -0.655251 -0.014537 
-2.634378 27.018610 -5.544907 0.683890 0.722486 -0.101528 
0.955229 8.720458 -6.502545 0.291698 0.526952 -0.798269 
5.798026 -0.305527 7.301027 0.586947 -0.342297 0.733707 
-3.964363 21.781060 -2.101740 0.365779 -0.882827 -0.294655 
-13.501680 15.057890 10.303180 0.599194 0.215102 0.771166 
-3.421169 22.836360 -3.478824 -0.016350 -0.710444 -0.703564 
8.385638 -1.977316 0.709164 0.433564 -0.840460 -0.325037 
-11.006290 12.791140 7.013713 0.267949 0.187675 0.944977 
11.721440 4.429257 1.958442 0.541347 0.823624 -0.169073 
-6.271957 9.860356 8.779290 -0.150601 0.332488 0.931005 
-0.771584 -2.318538 1.768480 -0.383195 -0.922016 -0.055213 
7.590744 1.270540 -1.153485 0.528189 -0.079878 -0.845361 
1.691487 4.617876 -6.733755 0.323219 -0.077743 -0.943125 
-15.343760 21.134080 -1.280681 -0.882774 0.438644 0.168229 
-12.113270 9.467570 -3.749497 -0.374899 0.178177 -0.909782 
-8.336231 -3.213415 5.235859 0.119038 -0.990653 -0.066600 
-5.899786 24.507910 -3.608061 -0.411147 -0.022190 -0.911299 
-4.443656 -0.635962 10.464220 0.005617 0.604644 0.796476 
-14.281860 23.971580 -5.256183 0.047567 0.924116 0.379139 
2.142903 7.606014 11.102720 0.320238 0.218698 0.921748 
-7.196908 5.923337 -4.073703 -0.540565 -0.276732 -0.794487 
-14.324520 4.622832 7.111374 -0.489945 -0.546540 0.679152 
-1.986268 2.490393 -7.075608 0.178622 -0.218853 -0.959269 
4.892081 -2.962005 0.291748 0.246611 -0.904249 -0.348592 
-3.384606 13.864750 7.136065 -0.262031 0.598382 0.757152 
-15.276930 23.161800 -4.512572 -0.712704 0.619344 0.329343 
-13.436080 -3.030703 6.211928 -0.828858 -0.555244 -0.068555 
0.117439 9.125863 10.947070 0.108950 0.505095 0.856159 
-10.244170 -3.166507 5.385141 -0.009412 -0.999728 0.021317 
-14.907240 15.486690 -1.717140 -0.305178 0.039101 -0.951492 
-10.720500 9.628943 8.635399 -0.055551 0.112874 0.992055 
-6.067356 0.189258 -3.211434 -0.798643 0.477870 -0.365801 
-4.454891 0.261001 8.811823 -0.463142 0.498671 0.732685 
2.517399 3.235218 10.732350 0.411071 -0.144147 0.900135 
-3.645511 11.399970 8.457857 -0.146341 0.351664 0.924617 
-14.946570 13.881210 10.692410 -0.162265 -0.286585 0.944213 
-10.682720 -3.287372 2.359212 0.134299 -0.988336 0.071799 
-3.525570 6.257212 11.488900 -0.177002 -0.090250 0.980064 
-17.806560 7.486172 1.278987 -0.975166 -0.191969 -0.110454 
-15.467970 21.184070 4.776394 -0.148746 0.975553 0.161772 
-9.296425 13.741930 -2.921228 -0.075132 0.552818 -0.829908 
-6.075585 21.733660 -2.582735 0.036872 -0.669540 -0.741860 
-11.138690 9.112875 -4.445119 -0.223910 0.121889 -0.966958 
8.201938 9.001095 -1.248266 0.825687 0.268951 -0.495889 
0.170616 -1.197880 9.217566 0.173633 -0.334045 0.926426 
7.865824 3.696345 -2.293442 0.817892 -0.078791 -0.569952 
-0.931958 9.907832 10.202410 -0.026532 0.863294 0.504003 
-15.252940 8.977767 -2.698107 -0.600379 0.143147 -0.786800 
6.701930 -2.935802 2.093433 0.287695 -0.957548 -0.018289 
-14.663870 18.384500 -1.401186 -0.545757 -0.247973 -0.800411 
-6.551790 -1.410310 -5.948278 -0.150479 0.403171 -0.902668 
-13.111390 23.361620 -5.443831 0.673982 0.688220 0.268517 
0.267859 -3.046460 9.243004 0.146959 -0.785692 0.600909 
4.300904 -2.937734 5.227716 0.210011 -0.971911 0.106227 
-3.514357 1.559091 -6.961215 -0.197490 -0.386749 -0.900790 
0.847449 1.577055 -6.197661 0.288570 -0.195774 -0.937230 
3.056914 -0.555987 8.812788 0.397993 -0.326794 0.857209 
-12.021660 14.425710 8.486907 0.711578 -0.157746 0.684670 
2.446614 -3.121941 -2.547493 -0.105232 -0.989184 0.102187 
-13.146520 18.147110 -1.624511 0.402212 -0.361891 -0.840987 
-2.038199 11.750620 8.696499 -0.085131 0.318190 0.944197 
8.024588 0.090142 -1.453286 0.167586 -0.091083 -0.981641 
-7.581453 -2.919926 5.000185 0.074051 -0.995442 -0.060102 
-13.452590 20.331660 -9.203023 0.371740 -0.876805 -0.304996 
7.374634 4.414361 7.441918 0.727458 -0.043352 0.684781 
-5.610431 8.924658 -4.900924 -0.408708 0.495740 -0.766290 
-15.987700 12.112080 8.950773 -0.357581 -0.757399 0.546336 
-13.551420 2.669151 -0.360582 -0.478368 -0.796299 -0.370232 
10.292820 3.487704 5.472254 0.235268 0.540333 0.807892 
-12.725220 -0.872230 6.845456 -0.772728 0.633582 0.038285 
3.657693 -2.860325 8.283587 0.500854 -0.712414 0.491540 
-6.777700 24.696890 -0.146337 0.314702 0.371865 0.873315 
-6.005646 22.866460 -1.157240 0.331648 0.629913 0.702296 
-0.304421 1.671257 10.934240 -0.084281 -0.296135 0.951420 
-14.861150 19.815560 -6.311744 -0.613264 -0.755341 -0.231012 
-17.752040 18.682880 7.143387 -0.855441 0.342546 0.388437 
9.401563 4.651126 3.252057 0.665572 0.728383 0.162702 
-7.695607 -3.002939 8.513293 -0.150293 -0.694893 0.703232 
3.685928 5.560421 10.607170 0.434036 0.031509 0.900345 
-12.686100 6.645689 -3.863640 -0.360669 -0.050351 -0.931334 
1.696321 3.230294 -6.365921 0.295052 -0.197012 -0.934949 
-8.621877 -0.204625 7.909802 -0.087091 0.167981 0.981936 
-11.223990 1.663267 4.069552 -0.326119 -0.916804 0.230471 
-17.485140 17.304580 0.553619 -0.805757 0.355023 -0.474041 
-18.643630 14.231160 8.474526 -0.942774 -0.089006 0.321333 
4.905241 7.249089 -4.874372 0.495575 0.180730 -0.849554 
-2.945950 15.035600 -0.835092 -0.203449 0.851206 -0.483795 
2.879779 1.045431 9.983306 0.376859 -0.251999 0.891333 
-5.491379 -3.163950 -5.834566 0.137996 -0.796418 -0.588791 
5.914455 12.913730 6.268749 0.635681 0.511999 0.577726 
-2.869504 10.087550 8.808551 -0.149350 0.528609 0.835624 
-3.504715 -2.330477 0.682328 0.025130 -0.999524 -0.017886 
-10.310210 3.460433 7.401002 -0.238667 -0.538758 0.807947 
-13.225770 12.095140 7.475092 0.200959 -0.205245 0.957857 
-11.526720 8.577043 9.117496 -0.078888 0.099297 0.991926 
4.481477 13.461720 -2.147409 0.447302 0.646205 -0.618336 
-2.859609 14.766160 6.283019 -0.254819 0.825558 0.503509 
5.125743 -3.116657 3.477246 0.050826 -0.988540 0.142148 
-15.275740 20.031690 -2.378873 -0.924260 -0.330639 -0.190846 
-16.489280 12.113510 5.929372 -0.711605 -0.692292 0.119796 
-14.584170 22.455700 -7.479661 -0.846854 -0.362301 -0.389329 
-2.565293 10.019910 -4.901493 -0.044017 0.567992 -0.821856 
-8.778923 11.241400 8.192231 0.144172 0.468281 0.871738 
2.450666 11.042870 -3.975306 0.166411 0.360050 -0.917972 
-14.393930 21.115360 0.513606 -0.051292 0.994234 0.094170 
-5.485626 2.200720 -5.863129 -0.737266 -0.290847 -0.609793 
-15.172520 7.021548 -2.850231 -0.565824 -0.186760 -0.803096 
-11.697320 20.252700 6.898048 0.629022 0.349143 0.694572 
-18.981360 14.233890 4.462436 -0.994537 -0.102073 0.021863 
-4.500483 26.944430 -2.305051 0.451609 0.538473 0.711405 
-13.781800 2.073578 2.860644 -0.436884 -0.894787 0.092129 
-12.138220 23.791770 -12.353030 0.689065 -0.206417 -0.694681 
-11.002860 21.128730 2.351801 0.107533 0.808492 0.578600 
0.754028 2.424271 11.359460 0.163655 -0.208448 0.964244 
-17.345820 11.825340 2.864613 -0.984028 -0.174382 0.035788 
3.756577 5.611268 -5.596755 0.437573 0.071459 -0.896339 
7.093213 1.790458 -2.465798 0.794686 -0.317363 -0.517449 
-3.655518 21.976720 -1.125292 0.697299 -0.278498 0.660464 
-16.522940 20.038140 7.011228 -0.386186 0.793899 0.469664 
-10.461050 3.288966 -2.296009 -0.342950 -0.478185 -0.808533 
2.622062 12.359130 -3.648134 0.298081 0.374651 -0.877943 
-3.065474 3.476469 -7.679997 0.083132 -0.219194 -0.972133 
-0.465305 14.203850 7.545009 -0.036092 0.643462 0.764627 
-7.550539 -0.796818 -4.718678 -0.528903 0.712648 -0.460863 
-10.047230 15.699260 -0.791389 0.410330 0.634267 -0.655236 
-12.258470 -2.460149 4.063578 -0.767595 0.635208 0.085489 
-4.910158 6.533564 11.101120 -0.699950 -0.005830 0.714168 
-16.802000 5.346280 0.834352 -0.822037 -0.538793 -0.184274 
-11.951470 4.701360 -3.554597 -0.216730 -0.490614 -0.843994 
-12.712610 17.221310 7.515251 0.664441 0.259675 0.700776 
-14.109890 22.182440 -1.507337 0.043992 0.885226 0.463077 
-7.507891 13.016250 -3.191994 0.045339 0.530993 -0.846162 
2.811643 -2.949681 2.469524 0.057295 -0.997299 -0.045950 
5.583241 -0.139102 -3.697762 0.717586 -0.459480 -0.523401 
-15.419640 20.754700 0.103765 -0.616974 0.762061 -0.196485 
-12.276760 21.693380 -4.436393 0.966985 0.215635 0.135803 
-15.589880 18.487780 9.406389 -0.245966 0.586691 0.771554 
-10.183620 18.753940 0.057695 0.347701 -0.536862 -0.768689 
5.922402 -0.617610 -1.402911 0.554272 -0.532197 -0.639960 
4.506102 -2.183241 -0.981115 0.489315 -0.659044 -0.571168 
-6.284443 -2.360535 6.592389 0.499247 -0.866077 0.025740 
-11.008690 -3.278669 -2.386964 -0.139154 -0.870768 -0.471592 
8.980201 6.166478 -0.211553 0.904129 -0.051338 -0.424165 
4.623762 -3.151397 1.410114 -0.092735 -0.995278 0.028663 
-8.628039 15.874880 2.621300 0.507378 0.852776 0.123860 
2.627412 16.078270 3.350069 0.301980 0.948685 0.093832 
-11.208670 22.059010 0.291100 -0.724263 0.616276 -0.309268 
-13.395820 16.476470 -1.759032 0.079395 0.088502 -0.992907 
-1.310517 11.979000 -4.464130 0.003519 0.356878 -0.934145 
-13.401100 -0.885176 0.944157 -0.617538 0.783609 -0.067848 
-10.694970 -0.080271 6.160299 -0.642519 0.757243 -0.117266 
-16.197160 14.290300 9.966245 -0.418247 -0.244386 0.874840 
9.800356 -0.857982 4.817506 0.548285 -0.711606 0.439319 
-5.422899 14.943000 3.504048 -0.056333 0.951326 0.302993 
1.227101 -0.527656 10.076300 0.279444 -0.566412 0.775299 
-9.260417 -3.284944 1.148884 0.031152 -0.958946 0.281873 
7.648585 5.336729 -2.213715 0.791655 -0.081183 -0.605552 
-6.138754 -3.249510 2.717487 0.308567 -0.950907 -0.023723 
-10.098270 1.092002 3.036465 -0.779591 -0.560076 0.280272 
-9.059113 -2.985879 8.960328 0.129328 -0.834747 0.535231 
-5.479918 7.340892 -7.259438 -0.587334 0.345721 -0.731790 
4.212648 2.540166 -5.353523 0.444317 -0.116473 -0.888266 
-1.935412 -2.923760 9.919205 0.166629 -0.807199 0.566272 
-8.388717 7.193100 8.499867 0.041094 -0.031698 0.998652 
-6.790091 -3.050442 7.180540 0.284461 -0.952456 -0.109134 
-15.853860 23.141510 -6.868934 -0.847407 -0.459976 -0.265184 
-12.750440 -1.276990 5.803829 -0.736792 0.551534 -0.391086 
-9.783439 -3.221078 -2.729792 -0.607364 -0.490701 -0.624757 
-7.741163 -1.255091 8.296984 -0.264312 0.463957 0.845507 
8.589056 3.005189 -0.204073 0.595541 0.200573 -0.777883 
2.509867 14.238180 -2.528890 0.237520 0.688446 -0.685293 
-11.920830 21.156550 4.507403 0.274068 0.949977 0.149766 
-6.907328 -3.237150 2.408956 -0.107713 -0.985751 0.129201 
-13.973450 12.593740 9.984705 0.322093 -0.765749 0.556673 
-5.486871 -0.211430 -5.032253 -0.624258 0.223004 -0.748713 
-8.858367 0.527292 -2.198329 -0.274066 0.046897 -0.960567 
4.292734 0.609649 -5.276436 0.475780 -0.338604 -0.811776 
-7.299280 25.191050 -1.068038 -0.456695 0.853173 0.252042 
-5.268780 -2.202162 7.419039 0.249270 -0.883680 -0.396200 
6.517399 5.773132 -3.802853 0.684361 -0.088807 -0.723715 
-7.295856 -3.200820 -3.849676 0.216669 -0.937473 0.272396 
3.119279 -0.114239 -5.137306 0.275160 -0.505713 -0.817643 
-10.918530 6.446210 9.050320 -0.096259 -0.280880 0.954903 
-3.395864 8.658817 11.071820 -0.264466 0.524171 0.809508 
-14.264740 19.027780 -3.821157 -0.258892 -0.915853 -0.306900 
-6.071909 -2.052338 10.623420 -0.556247 0.199530 0.806707 
-6.214456 5.179516 -6.612319 -0.845869 -0.137634 -0.515327 
-2.593231 13.336860 -3.146231 -0.145023 0.645839 -0.749573 
-11.023920 20.498260 5.772822 0.782840 0.503978 0.364922 
6.640702 -0.342348 6.261411 0.353965 -0.353254 0.865980 
8.020610 2.036101 6.018986 0.407143 0.169324 0.897532 
-12.968840 19.108060 -3.498200 0.517834 -0.808681 -0.279074 
7.601336 8.665559 7.042488 0.756554 0.265241 0.597724 
-7.522410 11.932900 7.334679 0.064531 0.489763 0.869464 
-9.821820 15.739840 6.215926 0.819089 0.258440 0.512154 
-3.047485 -1.194724 -5.481952 0.063734 -0.251164 -0.965844 
-5.764375 15.151430 1.178834 0.002717 0.988713 -0.149799 
-8.515248 11.220140 -4.079384 -0.075794 0.263953 -0.961553 
-18.296830 18.428060 3.341824 -0.981115 -0.110595 -0.158691 
-8.552071 7.478575 -4.380330 -0.093592 -0.160832 -0.982534 
-16.715410 12.117310 0.380477 -0.839556 -0.239589 -0.487589 
-17.380840 14.310020 -0.403973 -0.685124 -0.208029 -0.698090 
10.785560 -0.295485 0.619233 0.722064 -0.622403 -0.302055 
5.030172 11.092100 7.956098 0.489734 0.490230 0.720996 
-5.881053 14.006090 5.545091 -0.114986 0.827102 0.550165 
8.343162 -0.543107 6.405965 0.275668 -0.476112 0.835060 
-16.518550 11.643150 5.512097 -0.919050 -0.053463 0.390499 
-17.423360 7.145665 4.386617 -0.935380 -0.326408 0.136095 
-14.859890 4.059607 5.848564 -0.624560 -0.694253 0.357683 
-12.333820 -3.204429 3.578130 -0.358029 -0.925273 0.125237 
-1.875869 23.702830 -3.841448 0.809827 0.253534 0.529056 
-9.773707 13.613570 6.211303 0.437248 0.389433 0.810652 
4.148167 2.914382 9.487609 0.496419 -0.095792 0.862782 
-7.537070 14.429530 5.613165 0.069525 0.776338 0.626470 
-9.033555 22.602990 1.235728 0.271568 0.381729 0.883478 
-11.157280 -3.088629 8.994526 -0.113143 -0.943267 0.312164 
-9.025423 5.668204 -3.829844 -0.030573 -0.365852 -0.930171 
-5.112271 10.097930 8.859954 -0.126480 0.340561 0.931676 
-12.311080 22.460420 -7.219329 0.997746 0.066621 -0.007975 
1.972827 14.705240 6.815012 0.192593 0.665725 0.720915 
-16.566120 6.093041 5.901607 -0.801357 -0.396814 0.447622 
-6.638383 1.963202 -2.427287 -0.633152 -0.312758 -0.708026 
-2.238087 -2.111959 7.756208 -0.125173 -0.886348 -0.445779 
-1.867991 -0.827764 -5.899133 0.018744 -0.610492 -0.791801 
-3.394912 27.627010 -4.351863 -0.151482 0.964147 -0.217883 
-13.360060 13.678110 10.464910 0.529256 -0.214403 0.820926 
6.432561 3.672292 -3.685922 0.708270 -0.100430 -0.698761 
-3.297515 -3.190228 -3.944446 -0.033976 -0.931117 0.363135 
-12.548200 24.332280 -10.051730 0.907849 0.375137 0.187303 
-18.163440 17.148790 3.183064 -0.958216 0.247491 -0.143424 
5.638314 9.404650 -3.722322 0.534332 0.282143 -0.796796 
0.264398 15.830570 5.608235 0.038778 0.877426 0.478142 
4.816336 -0.095361 7.879905 0.534229 -0.360742 0.764503 
-4.028818 25.153140 -4.590114 -0.577230 -0.074846 -0.813144 
-13.296890 -1.831670 -1.086381 -0.550340 0.488554 -0.677083 
8.159974 10.096310 5.369554 0.847772 0.367944 0.381969 
-12.784100 19.694510 -5.350344 0.762800 -0.617968 -0.190401 
-15.589950 19.478560 -0.667612 -0.862647 0.106803 -0.494402 
-16.237830 17.063460 -0.686132 -0.631076 0.232289 -0.740125 
-9.314325 2.372777 -2.600538 -0.183913 -0.330645 -0.925662 
12.091270 2.223400 1.220040 0.932765 -0.080003 -0.351496 
-10.096830 20.151510 2.390443 0.736571 0.223301 0.638436 
-9.571517 16.714140 4.379311 0.882144 0.409749 0.232224 
-8.814851 -1.729531 -4.406076 -0.771591 0.438106 -0.461205 
-8.418511 3.410477 8.319662 -0.316310 -0.212259 0.924605 
-15.627950 21.501200 -3.924854 -0.971669 -0.222271 -0.080340 
-12.391770 19.293390 -1.103200 0.936443 -0.138902 -0.322151 
-15.971710 21.133550 2.863097 -0.300185 0.947701 -0.108404 
-10.502570 -1.741311 -2.087713 -0.328279 0.303767 -0.894404 
-6.158471 2.635496 -4.194666 -0.907256 -0.250342 -0.337956 
-11.309470 15.157950 8.031133 0.595406 0.141407 0.790883 
0.215633 -1.331243 -4.987471 0.157262 -0.474126 -0.866299 
0.801998 16.445980 2.453773 -0.023465 0.999244 -0.030987 
-16.836610 8.281578 -1.067733 -0.850049 -0.008882 -0.526629 
-6.283359 6.810431 8.353090 -0.307688 -0.130391 0.942511 
2.956482 7.646030 -5.924507 0.445876 0.231522 -0.864634 
-7.754729 5.638366 8.577778 0.046724 -0.076702 0.995959 
3.471265 10.541960 9.215842 0.268298 0.480987 0.834666 
-12.720540 21.464380 -8.627141 0.952419 -0.290372 -0.092637 
-9.916737 0.205821 7.031724 -0.612792 0.415554 0.672162 
3.310901 9.053039 -4.797433 0.335151 0.433992 -0.836256 
8.392643 10.917390 1.142402 0.883648 0.437691 -0.166108 
4.178024 7.323715 9.865198 0.432500 0.234621 0.870573 
0.382554 -3.071522 3.888946 -0.399294 -0.899426 0.177755 
-4.189903 11.924140 -4.223922 -0.064364 0.497202 -0.865244 
-12.594210 20.593710 6.983148 0.153853 0.829602 0.536740 
-13.331940 25.176750 -11.999470 -0.619531 -0.124443 -0.775045 
-13.277990 -2.845280 7.791325 -0.839066 -0.217769 0.498542 
-10.976470 6.279677 -4.306624 -0.074704 -0.237199 -0.968584 
-1.846480 25.408660 -6.072786 0.535840 -0.127328 -0.834664 
-4.656518 13.244280 -2.913662 -0.060805 0.690945 -0.720346 
-9.517393 4.845300 8.539965 -0.022095 -0.252270 0.967405 
-8.580084 -1.376334 8.560939 0.144149 0.385752 0.911272 
-17.924160 9.882794 3.799388 -0.979170 0.162484 0.121761 
-1.366341 15.363760 -1.475887 -0.163175 0.866378 -0.471978 
-0.098560 0.410567 10.872880 -0.019458 -0.405616 0.913836 
-12.804440 26.093400 -12.025210 0.508700 0.813316 -0.282386 
-1.752950 9.548604 -5.973458 -0.014246 0.844633 -0.535156 
0.125308 10.306460 8.837556 0.024797 0.588452 0.808152 
-18.314580 13.176060 1.555353 -0.901142 -0.239923 -0.361081 
-12.313930 20.736560 0.401807 0.190441 0.843810 -0.501714 
-5.403548 8.693644 8.959420 -0.336998 0.245013 0.909066 
5.157833 14.736020 1.721106 0.566666 0.822863 -0.042260 
-11.332800 2.250682 -0.893197 -0.530791 -0.655312 -0.537426 
-7.402986 2.913216 8.348750 0.171738 -0.147862 0.973983 
8.812746 3.618038 5.038432 0.483134 0.480018 0.732232 
-2.793145 -0.375832 9.626559 -0.113475 -0.106077 0.987862 
-4.599340 9.470991 -5.007792 -0.221117 0.614449 -0.757337 
-18.432740 13.440130 5.993223 -0.884749 -0.463288 0.050833 
1.542737 0.437477 -6.039727 0.226665 -0.335455 -0.914381 
-4.807751 -2.902493 10.990200 0.065706 -0.539017 0.839728 
-12.295740 10.522540 8.418862 -0.131394 0.291069 0.947636 
6.951661 2.372525 7.815089 0.685057 -0.247315 0.685224 
-10.542280 11.861610 -3.719640 -0.212912 0.374842 -0.902309 
-12.489360 20.478070 -2.325874 0.980294 0.197540 -0.001630 
0.932186 6.869581 -6.774809 0.375279 0.047060 -0.925717 
-4.087414 4.328415 10.634260 -0.489827 -0.284596 0.824060 
-17.177830 15.480180 -0.549363 -0.692813 0.089449 -0.715548 
-12.909120 -3.314329 -1.622712 -0.439041 -0.632991 -0.637625 
-0.958072 4.645393 11.807400 0.000496 -0.174037 0.984739 
8.990974 9.223975 2.012386 0.979577 0.195093 0.048658 
6.343825 13.320440 -0.285659 0.667933 0.688422 -0.282739 
0.150068 2.460486 -6.848229 0.261762 -0.164998 -0.950924 
10.449430 2.072373 -0.862219 0.434809 0.154982 -0.887086 
-17.080450 13.381050 9.744075 -0.446677 -0.300845 0.842598 
1.182547 15.037810 -1.751046 0.089703 0.815732 -0.571431 
11.590670 0.286543 3.871788 0.855869 -0.483427 0.183812 
11.111040 1.536445 5.495661 0.683384 -0.162676 0.711705 
-1.936724 23.627290 -4.916050 0.328451 -0.767077 -0.551101 
1.124225 12.886030 8.133391 0.143153 0.443091 0.884973 
-6.732085 11.199350 -4.118580 -0.092950 0.411781 -0.906530 
-8.195552 9.451669 8.392848 0.095503 0.197489 0.975642 
-15.775060 15.916820 10.836710 -0.175749 0.156034 0.971991 
-14.540480 8.303923 8.302366 -0.436384 0.170999 0.883362 
-17.411060 9.369473 5.392429 -0.867122 0.029367 0.497229 
-9.398090 7.359455 9.038672 0.200848 0.005132 0.979609 
-18.205230 19.832190 2.441042 -0.844232 0.344296 -0.410771 
0.150733 6.039360 11.514870 0.195417 0.021042 0.980495 
-17.539470 9.235673 0.829699 -0.949219 0.155408 -0.273555 
4.086650 1.472010 9.698796 0.483716 -0.263582 0.834592 
12.045030 3.690171 3.712993 0.884161 0.303009 0.355591 
-2.950022 8.130072 -7.530925 -0.004353 0.371093 -0.928585 
-1.162642 -2.182713 -2.881888 -0.098530 -0.906597 0.410334 
-5.408653 2.918669 7.644659 -0.519639 -0.191766 0.832587 
-2.679285 2.258689 10.825130 -0.251775 -0.264933 0.930817 
-1.446651 5.565929 -7.545134 0.201749 -0.082780 -0.975933 
-13.130050 21.161040 -1.277394 0.653123 0.712596 0.256199 
2.951538 15.783680 0.379260 0.333652 0.892914 -0.302294 
-14.855410 11.553330 7.323385 -0.361729 -0.529710 0.767176 
6.522315 7.374780 8.471978 0.709303 0.065300 0.701872 
-18.019470 15.490660 8.874289 -0.805629 0.227061 0.547179 
-18.022600 12.459190 7.849227 -0.636582 -0.744351 0.201753 
5.404945 5.860886 9.392775 0.579276 -0.002218 0.815128 
0.470556 3.986987 11.182690 0.183354 -0.104429 0.977484 
-11.747250 18.836590 -0.540332 0.454783 0.161462 -0.875844 
-18.563900 14.906880 6.213084 -0.970528 0.182809 0.157025 
-13.404280 22.030100 -11.433890 -0.575705 -0.369221 -0.729548 
1.698866 5.091795 11.275680 0.295878 -0.042676 0.954272 
-12.080990 4.855490 8.290942 -0.184941 -0.457376 0.869830 
-17.784000 17.410940 5.342866 -0.979792 0.136623 0.146090 
6.246691 12.004440 -2.087231 0.550638 0.500490 -0.668063 
-6.336285 21.791280 0.504245 0.395564 0.317084 0.861967 
5.711094 2.558142 8.581633 0.535804 -0.153574 0.830258 
-8.411075 15.082150 -1.825524 0.075037 0.782694 -0.617867 
-18.307250 20.105650 4.129039 -0.834266 0.532138 0.144323 
3.641202 10.306200 -4.513194 0.251366 0.407298 -0.878023 
2.753390 12.017340 7.927986 0.145222 0.524530 0.838915 
-5.297332 24.582770 -2.166226 0.683483 -0.008353 0.729919 
-12.177540 3.030756 6.550646 -0.321995 -0.767211 0.554713 
-10.896130 1.286642 2.212179 -0.732899 -0.530077 0.426472 
-11.132940 20.335110 -0.425352 -0.411512 0.081059 -0.907793 
9.340906 1.517662 6.524648 0.110928 0.149468 0.982525 
-15.625210 7.097267 7.474247 -0.649060 -0.189089 0.736862 
3.283017 -2.814149 1.024575 -0.054553 -0.992749 0.107118 
-14.473110 -2.928936 1.787767 -0.827609 -0.096763 0.552902 
3 94 117 299 
3 189 440 344 
3 456 425 493 
3 46 279 500 
3 201 252 90 
3 297 216 121 
3 33 325 68 
3 18 157 410 
3 373 192 263 
3 422 220 433 
3 96 380 163 
3 432 1 223 
3 7 47 209 
3 319 32 302 
3 190 408 104 
3 205 14 66 
3 412 283 23 
3 140 134 389 
3 271 490 138 
3 11 286 208 
3 433 220 471 
3 375 423 131 
3 237 193 425 
3 308 227 159 
3 280 323 64 
3 101 50 369 
3 94 352 336 
3 296 49 144 
3 383 331 221 
3 183 45 7 
3 277 160 251 
3 477 482 231 
3 310 61 458 
3 93 72 85 
3 418 239 391 
3 162 7 209 
3 32 47 7 
3 32 319 47 
3 20 50 101 
3 105 194 53 
3 103 10 16 
3 370 342 201 
3 138 490 187 
3 42 20 101 
3 15 27 92 
3 286 285 208 
3 21 205 145 
3 315 224 332 
3 325 287 75 
3 286 127 35 
3 78 357 219 
3 14 205 106 
3 290 46 500 
3 480 464 446 
3 259 143 126 
3 85 20 93 
3 93 20 42 
3 228 406 419 
3 468 118 472 
3 200 72 109 
3 443 273 29 
3 456 493 366 
3 384 281 160 
3 301 191 203 
3 349 108 387 
3 487 115 492 
3 15 327 59 
3 311 325 44 
3 498 454 215 
3 108 11 208 
3 275 130 253 
3 151 23 459 
3 463 345 491 
3 84 60 155 
3 213 451 478 
3 68 325 75 
3 333 252 396 
3 4 31 27 
3 287 325 311 
3 86 89 312 
3 217 149 203 
3 239 485 495 
3 156 340 458 
3 199 20 85 
3 173 175 362 
3 494 218 129 
3 0 342 123 
3 129 219 494 
3 161 440 189 
3 264 78 219 
3 346 344 12 
3 68 369 33 
3 327 374 59 
3 112 86 131 
3 138 294 271 
3 316 263 192 
3 206 331 338 
3 206 338 393 
3 250 487 492 
3 451 477 231 
3 398 142 436 
3 414 362 8 
3 237 428 330 
3 284 81 481 
3 300 343 291 
3 345 376 486 
3 22 171 351 
3 50 33 369 
3 304 56 122 
3 395 322 88 
3 1 432 215 
3 289 37 104 
3 31 92 27 
3 357 147 36 
3 403 418 391 
3 123 145 374 
3 334 233 421 
3 342 398 123 
3 207 425 456 
3 177 26 438 
3 399 137 378 
3 3 279 57 
3 304 31 4 
3 287 56 75 
3 171 207 269 
3 190 104 37 
3 390 88 270 
3 253 130 97 
3 497 2 114 
3 95 463 58 
3 283 412 265 
3 288 92 302 
3 447 60 104 
3 98 307 212 
3 301 203 234 
3 416 147 357 
3 472 169 268 
3 150 5 188 
3 46 109 279 
3 46 244 109 
3 148 118 468 
3 239 329 485 
3 10 103 235 
3 265 186 491 
3 66 14 157 
3 471 65 443 
3 195 117 94 
3 245 331 196 
3 214 19 34 
3 162 175 7 
3 80 286 170 
3 106 279 3 
3 17 262 232 
3 342 370 398 
3 255 482 69 
3 367 355 168 
3 474 48 399 
3 335 140 388 
3 453 387 467 
3 440 187 278 
3 254 412 23 
3 175 183 7 
3 143 293 126 
3 455 416 357 
3 305 229 496 
3 305 107 229 
3 401 428 61 
3 141 57 279 
3 320 204 372 
3 169 449 142 
3 238 59 469 
3 163 380 152 
3 110 470 179 
3 451 213 298 
3 302 92 319 
3 111 400 465 
3 333 307 90 
3 433 191 422 
3 33 44 325 
3 358 360 125 
3 153 117 195 
3 2 143 324 
3 224 419 306 
3 382 447 408 
3 124 429 292 
3 254 134 335 
3 112 413 89 
3 112 89 86 
3 212 307 12 
3 64 373 263 
3 403 401 61 
3 430 266 83 
3 32 45 302 
3 32 7 45 
3 482 255 435 
3 22 351 360 
3 273 330 428 
3 10 390 270 
3 11 108 153 
3 480 484 464 
3 180 99 359 
3 14 141 410 
3 5 264 488 
3 5 150 264 
3 500 106 80 
3 500 279 106 
3 204 397 276 
3 193 330 174 
3 77 272 356 
3 285 263 158 
3 50 199 309 
3 266 34 275 
3 48 421 399 
3 287 122 56 
3 287 311 122 
3 463 394 58 
3 422 301 99 
3 36 371 256 
3 170 11 153 
3 173 77 175 
3 430 214 34 
3 354 461 185 
3 153 195 170 
3 312 76 392 
3 259 126 318 
3 445 395 288 
3 274 19 116 
3 321 201 342 
3 241 438 460 
3 345 463 95 
3 420 465 185 
3 143 259 361 
3 411 248 434 
3 173 313 77 
3 178 88 55 
3 213 475 320 
3 478 246 213 
3 484 359 225 
3 403 61 310 
3 468 424 148 
3 269 378 243 
3 65 471 220 
3 49 296 381 
3 49 381 445 
3 260 99 180 
3 212 12 344 
3 320 240 204 
3 75 238 18 
3 272 77 313 
3 256 96 102 
3 179 164 433 
3 327 314 10 
3 479 225 359 
3 134 254 23 
3 141 14 57 
3 62 396 368 
3 389 291 81 
3 154 26 249 
3 106 3 57 
3 389 133 140 
3 174 166 13 
3 103 16 197 
3 71 399 421 
3 258 405 43 
3 240 154 204 
3 210 383 221 
3 155 467 387 
3 285 280 263 
3 56 304 4 
3 94 244 195 
3 107 495 229 
3 450 84 387 
3 259 388 361 
3 53 176 105 
3 203 199 82 
3 203 191 199 
3 173 362 414 
3 79 83 40 
3 315 132 136 
3 56 238 75 
3 73 350 236 
3 315 419 224 
3 284 5 133 
3 181 237 207 
3 53 444 176 
3 230 95 385 
3 180 359 484 
3 82 72 217 
3 95 376 345 
3 255 52 426 
3 146 246 435 
3 21 127 205 
3 129 488 219 
3 96 371 380 
3 183 288 302 
3 73 124 366 
3 29 470 443 
3 455 380 416 
3 409 225 479 
3 282 198 473 
3 388 488 129 
3 59 238 27 
3 407 377 232 
3 54 226 253 
3 134 341 389 
3 160 172 392 
3 135 409 479 
3 211 432 67 
3 266 363 51 
3 301 234 99 
3 280 35 323 
3 199 85 82 
3 75 42 101 
3 358 154 249 
3 242 267 317 
3 210 43 405 
3 476 479 211 
3 178 321 270 
3 240 438 154 
3 142 201 169 
3 28 496 119 
3 348 426 444 
3 310 418 403 
3 147 416 380 
3 167 9 62 
3 334 411 417 
3 435 255 146 
3 155 387 84 
3 362 175 306 
3 188 152 150 
3 0 374 235 
3 487 250 267 
3 67 223 447 
3 156 22 340 
3 123 374 0 
3 343 233 100 
3 54 194 105 
3 290 195 244 
3 272 28 119 
3 313 216 297 
3 76 312 247 
3 102 324 218 
3 399 378 292 
3 420 461 353 
3 296 144 113 
3 136 179 470 
3 401 29 273 
3 173 414 216 
3 323 328 436 
3 227 202 449 
3 195 290 170 
3 297 272 313 
3 378 456 366 
3 136 132 179 
3 428 364 156 
3 59 374 469 
3 311 209 122 
3 419 315 228 
3 19 274 97 
3 277 165 172 
3 190 377 115 
3 92 327 15 
3 74 241 460 
3 371 147 380 
3 96 163 2 
3 485 168 495 
3 130 19 97 
3 223 1 155 
3 135 479 476 
3 266 430 34 
3 378 137 243 
3 184 330 273 
3 495 257 229 
3 368 178 55 
3 13 409 404 
3 81 133 389 
3 429 448 474 
3 225 91 484 
3 172 131 86 
3 40 296 119 
3 102 494 256 
3 498 352 454 
3 63 400 194 
3 345 486 491 
3 51 62 386 
3 196 385 384 
3 144 25 501 
3 132 164 179 
3 79 214 430 
3 79 257 214 
3 444 230 385 
3 161 226 54 
3 316 208 158 
3 414 8 121 
3 304 122 47 
3 172 312 392 
3 153 349 117 
3 57 14 106 
3 455 152 380 
3 211 479 359 
3 415 363 275 
3 50 20 199 
3 383 365 282 
3 24 131 423 
3 214 116 19 
3 261 347 465 
3 71 137 399 
3 53 111 347 
3 92 31 319 
3 282 473 441 
3 493 425 13 
3 385 196 176 
3 206 393 481 
3 403 391 431 
3 224 437 332 
3 375 198 365 
3 433 110 179 
3 336 498 337 
3 224 311 44 
3 78 455 357 
3 119 113 272 
3 343 300 137 
3 34 19 130 
3 433 164 437 
3 280 285 35 
3 49 25 144 
3 256 494 36 
3 120 421 452 
3 192 289 316 
3 72 18 410 
3 2 497 293 
3 257 116 214 
3 296 40 381 
3 417 411 457 
3 160 392 245 
3 92 314 327 
3 269 243 171 
3 321 342 197 
3 365 383 405 
3 382 350 339 
3 184 273 443 
3 248 334 295 
3 406 107 297 
3 340 249 458 
3 105 440 54 
3 252 201 321 
3 150 152 78 
3 344 278 457 
3 324 96 2 
3 348 347 426 
3 440 278 344 
3 470 431 136 
3 178 396 321 
3 118 148 442 
3 417 233 334 
3 221 245 76 
3 449 202 142 
3 116 355 38 
3 263 280 64 
3 156 458 61 
3 376 52 69 
3 450 387 108 
3 276 134 23 
3 30 94 336 
3 308 159 17 
3 406 297 121 
3 249 26 458 
3 240 475 460 
3 397 204 154 
3 42 75 18 
3 74 460 499 
3 381 40 395 
3 303 326 37 
3 405 258 375 
3 228 391 406 
3 453 117 349 
3 218 324 143 
3 154 438 26 
3 244 200 109 
3 131 172 165 
3 83 79 430 
3 299 117 453 
3 495 168 355 
3 278 187 490 
3 248 411 334 
3 373 308 17 
3 98 468 307 
3 41 236 382 
3 15 59 27 
3 21 35 127 
3 30 200 244 
3 133 5 388 
3 318 186 412 
3 501 25 356 
3 78 264 150 
3 247 87 76 
3 206 196 331 
3 354 185 63 
3 436 328 398 
3 80 170 290 
3 37 232 377 
3 362 306 8 
3 194 400 111 
3 205 469 374 
3 356 25 445 
3 421 120 334 
3 475 240 320 
3 494 219 357 
3 438 240 460 
3 72 82 85 
3 21 328 35 
3 74 499 168 
3 87 210 221 
3 358 125 341 
3 128 446 464 
3 218 361 129 
3 255 69 52 
3 432 211 337 
3 258 423 375 
3 459 283 477 
3 248 424 434 
3 486 69 482 
3 291 271 81 
3 286 35 285 
3 312 89 247 
3 138 187 440 
3 110 433 471 
3 200 30 217 
3 450 208 316 
3 26 177 462 
3 162 209 311 
3 301 422 191 
3 88 178 270 
3 360 358 249 
3 251 473 277 
3 264 219 488 
3 211 439 337 
3 24 413 112 
3 367 354 38 
3 248 6 424 
3 131 24 112 
3 291 125 360 
3 205 127 80 
3 194 253 63 
3 175 356 183 
3 249 340 360 
3 237 425 207 
3 203 82 217 
3 2 293 143 
3 263 316 158 
3 413 247 89 
3 133 81 284 
3 94 299 352 
3 60 223 155 
3 152 188 163 
3 167 62 363 
3 363 415 346 
3 277 198 165 
3 95 230 376 
3 121 216 414 
3 495 107 39 
3 333 90 252 
3 207 171 181 
3 400 185 465 
3 375 131 198 
3 47 319 304 
3 445 381 395 
3 491 222 265 
3 88 322 55 
3 158 208 285 
3 374 145 205 
3 226 189 415 
3 446 443 65 
3 79 496 257 
3 426 146 255 
3 171 22 364 
3 149 30 336 
3 409 91 225 
3 261 246 146 
3 427 293 497 
3 376 69 486 
3 375 365 405 
3 308 202 227 
3 396 252 321 
3 319 31 304 
3 193 237 330 
3 475 353 461 
3 461 354 367 
3 22 156 364 
3 76 245 392 
3 188 5 284 
3 394 463 491 
3 490 100 278 
3 283 222 477 
3 108 349 153 
3 36 147 371 
3 382 236 350 
3 113 144 501 
3 134 397 341 
3 56 4 238 
3 464 484 91 
3 472 159 70 
3 174 13 193 
3 136 228 315 
3 370 142 398 
3 96 324 102 
3 298 459 477 
3 480 446 65 
3 266 51 386 
3 260 65 220 
3 142 202 436 
3 485 329 241 
3 483 247 413 
3 52 230 444 
3 99 234 359 
3 231 482 435 
3 337 498 215 
3 119 296 113 
3 326 17 232 
3 336 439 149 
3 428 401 273 
3 349 387 453 
3 272 297 28 
3 201 90 268 
3 161 54 440 
3 182 298 213 
3 136 431 228 
3 220 422 99 
3 60 447 223 
3 458 462 310 
3 145 123 398 
3 425 193 13 
3 298 477 451 
3 495 39 239 
3 350 135 339 
3 390 10 314 
3 305 496 28 
3 130 275 34 
3 382 67 447 
3 33 437 44 
3 473 251 427 
3 88 314 395 
3 87 247 483 
3 419 121 8 
3 260 180 480 
3 62 368 386 
3 157 18 238 
3 157 238 469 
3 98 434 424 
3 52 444 426 
3 473 427 441 
3 68 75 369 
3 166 409 13 
3 242 474 448 
3 347 111 465 
3 138 440 105 
3 101 369 75 
3 218 143 361 
3 328 323 35 
3 415 189 346 
3 439 211 489 
3 300 291 360 
3 177 438 241 
3 235 103 197 
3 427 126 293 
3 453 454 299 
3 491 486 222 
3 364 428 237 
3 288 314 92 
3 407 6 492 
3 275 253 226 
3 128 330 184 
3 269 456 378 
3 159 262 17 
3 384 385 58 
3 454 453 467 
3 309 437 33 
3 203 149 379 
3 492 6 250 
3 356 272 501 
3 98 424 468 
3 63 38 354 
3 58 394 281 
3 309 33 50 
3 167 12 9 
3 310 462 418 
3 299 454 352 
3 243 351 171 
3 11 170 286 
3 501 272 113 
3 445 288 183 
3 137 300 243 
3 223 67 432 
3 250 6 295 
3 58 281 384 
3 43 87 483 
3 176 294 105 
3 347 146 426 
3 476 67 339 
3 433 437 191 
3 209 47 122 
3 156 61 428 
3 377 407 492 
3 18 72 93 
3 491 186 394 
3 0 235 342 
3 441 427 393 
3 246 478 435 
3 277 172 160 
3 278 100 417 
3 149 489 379 
3 300 351 243 
3 347 261 146 
3 30 149 217 
3 9 12 333 
3 238 4 27 
3 217 72 200 
3 72 279 109 
3 429 124 41 
3 224 44 437 
3 66 469 205 
3 402 407 232 
3 258 483 413 
3 66 157 469 
3 235 327 10 
3 204 276 151 
3 364 237 181 
3 91 166 464 
3 289 192 303 
3 297 107 28 
3 404 409 135 
3 13 404 493 
3 452 48 474 
3 229 257 496 
3 356 445 183 
3 91 409 166 
3 276 23 151 
3 402 148 407 
3 28 107 305 
3 105 294 138 
3 71 343 137 
3 408 190 115 
3 230 52 376 
3 338 331 383 
3 480 180 484 
3 281 251 160 
3 432 337 215 
3 244 46 290 
3 218 494 102 
3 241 462 177 
3 241 329 462 
3 499 461 367 
3 367 168 499 
3 121 419 406 
3 274 116 38 
3 439 336 337 
3 54 253 194 
3 373 17 326 
3 389 341 125 
3 183 302 45 
3 212 434 98 
3 80 290 500 
3 162 306 175 
3 83 386 322 
3 472 70 169 
3 142 370 201 
3 332 164 132 
3 199 191 309 
3 114 2 163 
3 192 373 303 
3 361 388 129 
3 265 412 186 
3 189 226 161 
3 388 5 488 
3 203 466 234 
3 106 205 80 
3 21 398 328 
3 359 489 211 
3 148 402 442 
3 474 292 429 
3 221 331 245 
3 182 320 372 
3 12 307 333 
3 437 309 191 
3 210 87 43 
3 62 51 363 
3 350 493 404 
3 220 99 260 
3 441 383 282 
3 321 197 270 
3 471 443 110 
3 253 97 63 
3 29 431 470 
3 268 169 201 
3 274 63 97 
3 383 441 393 
3 10 270 16 
3 348 444 53 
3 411 434 457 
3 194 111 53 
3 42 18 93 
3 282 365 198 
3 421 233 71 
3 343 271 291 
3 448 41 408 
3 394 251 281 
3 83 266 386 
3 258 43 483 
3 78 152 455 
3 265 222 283 
3 53 347 348 
3 327 235 374 
3 79 40 119 
3 120 295 334 
3 353 213 246 
3 275 363 266 
3 372 151 182 
3 360 351 300 
3 62 9 396 
3 408 115 487 
3 385 176 444 
3 356 175 77 
3 258 413 423 
3 12 167 346 
3 497 481 427 
3 208 450 108 
3 389 125 291 
3 475 213 353 
3 245 384 160 
3 139 294 206 
3 472 118 442 
3 167 363 346 
3 306 162 311 
3 306 311 224 
3 373 326 303 
3 181 171 364 
3 371 96 256 
3 72 141 279 
3 197 342 235 
3 25 49 445 
3 210 405 383 
3 140 335 134 
3 382 408 41 
3 233 343 71 
3 22 360 340 
3 262 402 232 
3 124 73 41 
3 203 379 466 
3 169 70 449 
3 128 166 174 
3 419 8 306 
3 83 322 40 
3 58 385 95 
3 283 459 23 
3 391 228 431 
3 497 114 284 
3 90 307 468 
3 314 88 390 
3 350 404 135 
3 498 336 352 
3 481 497 284 
3 26 462 458 
3 196 294 176 
3 9 333 396 
3 251 394 126 
3 487 448 408 
3 154 358 397 
3 29 401 403 
3 449 70 227 
3 332 132 315 
3 21 145 398 
3 244 94 30 
3 133 388 140 
3 384 245 196 
3 40 322 395 
3 6 248 295 
3 250 295 120 
3 134 276 397 
3 157 14 410 
3 188 114 163 
3 166 128 464 
3 81 139 481 
3 38 63 274 
3 366 493 73 
3 271 139 81 
3 227 70 159 
3 415 275 226 
3 234 466 359 
3 399 292 474 
3 326 232 37 
3 492 115 377 
3 423 413 24 
3 185 400 63 
3 382 339 67 
3 298 182 459 
3 251 126 427 
3 127 286 80 
3 378 366 124 
3 87 221 76 
3 466 379 489 
3 231 435 478 
3 481 139 206 
3 294 139 271 
3 470 110 443 
3 151 372 204 
3 126 394 186 
3 353 246 261 
3 261 420 353 
3 159 442 262 
3 418 329 239 
3 396 178 368 
3 196 206 294 
3 55 386 368 
3 55 322 386 
3 303 37 289 
3 402 262 442 
3 241 74 485 
3 318 126 186 
3 1 215 467 
3 39 406 391 
3 446 128 443 
3 388 318 335 
3 388 259 318 
3 457 212 344 
3 316 60 84 
3 450 316 84 
3 377 190 37 
3 16 270 197 
3 172 86 312 
3 64 323 308 
3 292 378 124 
3 338 383 393 
3 490 343 100 
3 473 198 277 
3 429 41 448 
3 236 41 73 
3 207 456 269 
3 267 242 487 
3 128 184 443 
3 417 457 278 
3 343 490 271 
3 1 467 155 
3 457 434 212 
3 397 358 341 
3 189 344 346 
3 73 493 350 
3 496 79 119 
3 436 202 308 
3 452 317 120 
3 478 451 231 
3 242 448 487 
3 436 308 323 
3 254 335 412 
3 335 318 412 
3 107 406 39 
3 452 421 48 
3 410 141 72 
3 447 104 408 
3 317 474 242 
3 148 424 6 
3 472 90 468 
3 90 472 268 
3 320 182 213 
3 116 257 355 
3 454 467 215 
3 289 60 316 
3 472 442 159 
3 308 373 64 
3 284 114 188 
3 417 100 233 
3 481 393 427 
3 174 330 128 
3 474 317 452 
3 355 367 38 
3 329 418 462 
3 135 476 339 
3 168 485 74 
3 65 260 480 
3 120 267 250 
3 407 148 6 
3 60 289 104 
3 439 489 149 
3 222 486 477 
3 261 465 420 
3 461 460 475 
3 211 67 476 
3 357 36 494 
3 120 317 267 
3 460 461 499 
3 359 466 489 
3 185 461 420 
3 355 257 495 
3 182 151 459 
3 29 403 431 
3 477 486 482 
3 314 288 395 
3 239 39 391 
3 313 173 216 
3 165 198 131 
3 332 437 164 
